<?xml version="1.0" encoding="utf-8"?>
<!-- Generator: Adobe Illustrator 27.7.0, SVG Export Plug-In . SVG Version: 6.00 Build 0)  -->
<svg version="1.1" id="圖層_1" xmlns="http://www.w3.org/2000/svg" xmlns:xlink="http://www.w3.org/1999/xlink" x="0px" y="0px"
	 viewBox="0 0 1830.2 454.2" style="enable-background:new 0 0 1830.2 454.2;" xml:space="preserve">
<style type="text/css">
	.st0{display:none;}
	.st1{display:none;opacity:0.49;}
	.st2{fill:#FFFFFF;}
</style>
<g id="bg">
</g>
<g id="BG">
</g>
<g id="圖層_4" class="st0">
</g>
<g id="圖層_4_拷貝">
</g>
<g id="圖層_5">
</g>
<g id="圖層_7" class="st0">
</g>
<g id="圖層_1_00000016067715307355866520000012799684788403938476_">
</g>
<g id="圖層_16">
</g>
<g id="圖層_13">
</g>
<g id="圖層_12" class="st0">
</g>
<g id="圖層_8" class="st1">
</g>
<g id="圖層_9">
</g>
<g id="圖層_3" class="st0">
</g>
<g id="圖層_10">
</g>
<g id="logo_draft">
</g>
<g id="圖層_15">
	<g>
		<path class="st2" d="M901.8,196c-0.1-9.9,7-9.8,13.1-11.1c14.6-3.1,29.2-6.3,43.8-9.6c8-1.8,10.9,0.2,10.1,8.3
			c-1.5,16.7-3.5,33.4-5.3,50.1c-2.2,20.5-4.4,41-6.8,61.5c-2.4,20.7-4.5,41.4-7.8,61.9c-3.2,19.6-12.6,36.7-25.5,51.7
			c-17.8,20.7-39.8,34.9-66.2,41.3c-24.7,6.1-49.4,5.9-73.4-4.2c-1.4-0.6-2.6-1.5-3.9-2.1c-3.8-1.8-4.5-4.4-3.3-8.5
			c3.4-12,6.4-24.1,9.5-36.2c2-7.6,2.6-7.5,9.6-4.1c21.9,10.9,44.1,12.9,65.5-0.8c13.9-8.9,21.2-22.8,24.9-40.2
			c-2.7,1.4-4.4,2.2-6.1,3.2c-14.5,8.6-29.7,15.1-47,14.4c-21.7-1-38.6-10.6-49.8-29.3c-13.6-22.7-16.1-47.5-13.1-73.2
			c2.4-20.8,8.5-40.4,20.1-57.9c15.7-23.6,36.5-38.4,66.3-37.1c15.9,0.7,28.4,8.6,40.4,17.8C898.1,193,899.5,194.2,901.8,196z
			 M831.5,286.1c1,7,1.5,14.2,3.2,21.1c4.6,18.6,21.5,25.7,37.9,15.9c5.3-3.2,9.4-8.2,13.9-12.6c3.4-3.4,4.6-7.8,4.9-12.7
			c1.1-16.9,2.7-33.8,3.4-50.7c0.2-4-1.2-8.6-3.5-11.9c-2.9-4.3-6.9-8.1-11.2-11.2c-9.4-7-19.6-6.6-27.3,0.7c-3.2,3-6,6.7-8.2,10.6
			C835.7,250.9,832.3,268.1,831.5,286.1z"/>
		<path class="st2" d="M1747.1,354.3c-8,4.1-14.8,7.9-21.9,11c-27.4,12.1-58.4,7.5-77.4-17.4c-10.5-13.8-15.3-29.9-17-46.8
			c-3.3-32.1,2.8-62.5,20.4-89.7c15.3-23.8,36.4-38.5,66.2-37.3c16.1,0.7,28.7,8.7,40.8,18c1.1,0.8,2,1.7,3.1,2.5
			c0.2,0.2,0.6,0.2,1.3,0.4c1.7-12.7,13-9.4,20.6-11.6c11.9-3.5,24.3-5.4,36.5-8.1c8.5-1.9,11.3,0.6,10.4,9.5
			c-1.7,15.9-3.5,31.8-5.2,47.6c-2.3,21-4.4,42-6.9,63c-2.4,20.8-4.3,41.7-8,62.4c-4.2,23.8-16.7,43.6-34.1,60.2
			c-16.2,15.5-35,26.5-56.8,31.9c-24.9,6.1-49.7,6.1-73.9-4c-0.3-0.1-0.6-0.2-0.9-0.4c-7.7-3.9-7.9-4.1-5.8-12.5
			c2.9-11.8,6-23.5,9.1-35.2c1.7-6.3,2.6-6.4,8.6-3.3c22.2,11.4,44.6,13.4,66.3-0.6C1736.3,385.3,1743.4,371.4,1747.1,354.3z
			 M1692.7,285.5c1,7.2,1.4,14.6,3.1,21.6c4.4,18.4,21.6,25.8,37.9,16c5.4-3.3,9.6-8.5,14.2-13c3.7-3.6,4.4-8.3,4.7-13.2
			c1.1-16.1,2.1-32.2,3.7-48.2c0.5-5.4-0.6-10-3.9-13.9c-3.2-3.8-6.6-7.5-10.6-10.5c-9.4-7.2-19.9-7-27.8,0.4c-3.3,3.1-6.2,7-8.4,11
			C1696.9,251.1,1693.5,267.9,1692.7,285.5z"/>
		<path class="st2" d="M300.3,194.1c10-4.3,18.8-8.5,27.9-12c14.2-5.5,28.9-8.8,44.4-8c24.4,1.3,38.2,15.5,43.2,38.3
			c3.7,17.3,1.1,34.5-0.6,51.7c-2.2,23.2-4.4,46.4-6.4,69.6c-0.5,5.8-0.5,11.6-0.4,17.4c0.1,5.3-4.1,5.6-7.4,6.5
			c-10.2,3-20.5,5.7-30.8,8.5c-5.6,1.6-11.2,3.3-16.8,4.9c-7.2,2-10.3-0.3-9.7-7.7c2-22,4.5-44,6.3-66.1c1.6-18.9,2.7-37.8,3.7-56.7
			c0.2-3.1-0.8-6.3-1.6-9.3c-2.5-8.7-7.9-13.1-16.8-12.3c-15.5,1.3-28.9,7.2-36.7,21.4c-2.8,5.2-3.7,11.7-4.3,17.7
			c-2.8,27.1-5.8,54.3-7.4,81.5c-0.6,9.2-3.2,13.3-12,15.8c-14.8,4.2-29.3,9.9-43.9,14.9c-1.6,0.5-3.2,1-4.8,1.1
			c-5.2,0.5-7.6-1.4-7.4-6.7c0.6-11,1.4-21.9,2.2-32.9c1.5-20.1,3.1-40.1,4.7-60.2c1.5-18.9,3.1-37.8,4.6-56.7
			c1.5-19.2,2.8-38.5,4.2-57.8c1.1-14.4,1.9-28.9,3.4-43.3c0.2-1.9,2.8-4.6,4.8-5.1c13-3.5,26.1-6.5,39.2-9.8
			c5.8-1.4,11.6-3.1,17.3-4.5c6.9-1.8,10,0.5,9.4,7.6c-1.8,20.9-3.7,41.7-5.6,62.6C302.1,174.3,301.2,183.8,300.3,194.1z"/>
		<path class="st2" d="M186.6,328.1c0,7.2,0,14.3,0,21.5c0,4.2-1.4,7-5.4,9.1c-12,6.1-24.8,9.7-38.1,11.3
			c-21.6,2.7-43.2,3.3-64.2-3.8C44,354.5,21.1,330.6,8.3,296.5C2.5,281.2,0,265.3,0,249.1c0.2-29.9,8.1-57.5,25.8-81.9
			C41.2,146,61.3,130.5,86.4,122c31.8-10.8,63.7-10.7,95.3,0.9c12,4.4,20.9,10.4,19.6,26.1c-1.1,13.1,1.1,26.6,1.6,39.9
			c0.2,5.7-1.9,7.3-7.3,5.4c-3.9-1.3-7.5-3.5-11-5.7c-14.6-9-29.5-17-47.3-16.5c-23,0.6-40.5,11.4-50.5,31.7
			c-14.6,29.2-14.1,59.2,1.7,88c8.6,15.8,22.7,24,41.3,22.3c10.6-1,21.2-1.9,31.5-4c6.5-1.4,12.7-4.9,18.9-7.7
			c5.1-2.3,6.3-1.8,6.4,3.7C186.7,313.4,186.6,320.8,186.6,328.1C186.7,328.1,186.6,328.1,186.6,328.1z"/>
		<path class="st2" d="M631.6,168c-1.3,8.8-2.6,17-3.8,25.1c9.9-4.3,19.3-8.9,29.1-12.5c16.4-6.1,33.5-8.9,51-6.9
			c20.4,2.3,31.2,12.4,35.9,32.5c3.5,15.1,2.9,30.4,1.5,45.7c-2.9,33-9,65.7-8.5,99c0.1,4.1-2.3,5.1-5.3,6
			c-13.1,3.7-26.2,7.4-39.4,11.1c-4,1.1-7.9,2.5-12,3.4c-6.3,1.3-9-1-8.4-7.4c1.7-18.7,3.8-37.4,5.6-56.2
			c1.9-19.7,3.7-39.5,5.2-59.2c0.4-5.3-0.1-10.7-0.7-15.9c-1-8.8-6.6-14.1-15.4-13.9c-15.5,0.3-28.7,6.2-38,18.7
			c-3.2,4.3-4.8,10.3-5.4,15.7c-3.2,29.8-5.9,59.6-8.8,89.5c-0.1,1.3-0.3,2.7-0.1,4c0.5,3.2-1,5-3.9,6
			c-17.5,5.9-34.9,11.9-52.4,17.8c-1.7,0.6-3.6,0.9-5.4,1.1c-5.3,0.4-7.5-1.7-7-7c1.9-21.9,3.8-43.8,5.7-65.7
			c2.5-28.7,5.1-57.4,7.7-86.1c0.7-7.8,1.5-15.6,2.1-23.4c0.4-4.6,2.5-6.8,7.3-7.8c19.8-4.2,39.6-8.8,59.4-13.3
			C628.5,168.1,629.5,168.2,631.6,168z"/>
		<path class="st2" d="M1492.5,168.1c-1.3,8.6-2.5,16.7-3.9,25.8c2.7-1.4,4.8-2.5,6.9-3.6c20.2-10.7,41.5-17.1,64.5-17
			c6.3,0,12.7,0.7,18.7,2.4c17.4,5,23.9,18.9,26.9,35.1c3.1,16.6,1.2,33.2-0.3,49.8c-2.8,30.1-8.3,60.1-7.7,90.5
			c0.1,3.8-2.2,4.9-5,5.7c-13.1,3.7-26.2,7.4-39.4,11.1c-4,1.1-7.9,2.5-12,3.4c-6.6,1.4-9.3-0.9-8.7-7.5c1.7-18.6,3.7-37.1,5.5-55.7
			c1.9-19.7,3.7-39.5,5.3-59.2c0.4-5.4-0.1-11-0.8-16.4c-1.1-8.8-6.7-13.9-15.5-13.7c-15.5,0.4-28.7,6.3-37.9,18.9
			c-3.1,4.3-4.7,10.4-5.2,15.8c-3.2,29.6-5.9,59.3-8.7,89c-0.1,1.5-0.3,3-0.1,4.5c0.4,3.3-1.3,4.9-4.1,5.8
			c-17.2,5.8-34.3,11.7-51.5,17.5c-1.9,0.6-3.8,1.1-5.8,1.3c-5.5,0.6-7.8-1.6-7.3-7.2c3-33.8,6-67.7,9-101.5
			c2.1-23.7,4.2-47.4,6.3-71.2c0.7-8.1,1.2-8.7,9.2-10.4c19.2-4.2,38.3-8.6,57.4-12.8C1489.4,168.2,1490.5,168.2,1492.5,168.1z"/>
		<path class="st2" d="M1304.4,348.9c-8.3,4.6-15.7,8.9-23.4,12.8c-17.8,9.1-36.4,12.8-56.1,7.6c-20-5.3-30.4-17.8-33.3-38.3
			c-2.2-16.1,0-31.9,1.4-47.8c2.4-27.4,5.2-54.7,7.6-82.1c1.2-13,1.1-12.7,13.9-15.3c16.1-3.2,32.2-7,48.3-10.5
			c1.7-0.4,3.5-0.5,5.8-0.8c0,2.5,0.2,4.4,0,6.3c-3.1,29.3-6.5,58.6-9.3,87.9c-1.3,13.6-2.3,27.2-2.4,40.8c-0.1,13.3,7.7,19,20.8,16
			c15.1-3.4,30.9-14.4,32.2-36.8c1.7-31.1,4.6-62.1,7-93.2c0.5-6.7,1.4-7.4,8.3-8.9c19.5-4.4,38.9-8.8,58.4-13.2
			c0.8-0.2,1.6-0.2,3.4-0.5c-0.5,6.9-1,13.5-1.6,20c-3.2,33.8-6.5,67.6-9.7,101.4c-1.6,16.9-3.3,33.8-4.9,50.7
			c-0.4,4.1-2.2,6.5-6.4,7.8c-19.2,5.9-38.4,12-57.5,18c-4.4,1.4-5.5,0.7-4.9-4C1302.5,361.2,1303.4,355.5,1304.4,348.9z"/>
		<path class="st2" d="M1078.6,379.3c-3.5-0.2-7-0.3-10.5-0.6c-4.6-0.4-7.2-3-7.8-7.6c-1.6-12-3.1-24.1-4.9-36.1
			c-0.6-4.1,1.2-5.9,4.7-7.5c5.9-2.7,11.7-5.6,17-9.3c9.2-6.4,13.7-15.5,14.5-26.7c3.4-47.5,6.8-95,10.3-142.5
			c0.3-4.8,0.8-9.6,1.1-14.4c0.3-3.5,1.7-5.6,5.6-6.5c18.6-4.4,37.2-9,55.8-13.6c8.8-2.2,11.2,0.1,10.3,9.2c-2.7,28-5.2,56-7.9,84
			c-3,30.3-4.8,60.8-9.6,90.9c-4.5,28.4-16.1,53.9-41.4,70.7C1104.4,376.8,1091.9,379.4,1078.6,379.3z"/>
		<path class="st2" d="M456.7,196.8c0.3-3.5,1-6.9,2-10.2c16.3-51.2,49.1-97.7,92.9-131.5C597.6,19.6,653.8,0,709.6,0
			c47.9,0,92.9,14.1,130,39.7c23,15.8,43,36,58.8,59.9c0.8,1.2,1.3,2.6,1.4,3.9c0.3,3-1,6.1-3.6,8l0,0c-0.6,0.5-1.3,0.9-1.9,1.2
			h-0.1c-15.2,5.5-30.5,10.8-45.9,16.1c-5.8,2-12.2,0.2-16.1-4.5l-0.1-0.1C802.7,88.7,758.4,68,709.6,68
			c-40.9,0-82.2,14.5-116.5,40.9c-31.5,24.3-54.2,49.5-66.7,84.6c-1.7,4.8-3,9.7-3.9,14.7l0,0c-0.3,1.7-0.6,3.5-0.8,5.3
			c-0.8,8.5-1.6,17.1-2.4,25.8c-2.2,23.9-4.4,47.7-6.6,71.6c-1,11.3-1.9,22.6-3.4,33.8c-0.3,2.3-3,5.4-5.3,6.2
			c-18.9,6.9-37.9,13.3-56.9,19.9c-5,1.7-5.9,1.1-5.4-4.3c2.6-29.3,5.2-58.6,7.8-88c2-22.9,4-45.7,6-68.6
			C455.8,205.5,456.4,201.2,456.7,196.8L456.7,196.8z"/>
	</g>
</g>
</svg>
